<?xml version="1.0" ?><!DOCTYPE svg  PUBLIC '-//W3C//DTD SVG 1.1//EN'  'http://www.w3.org/Graphics/SVG/1.1/DTD/svg11.dtd'><svg enable-background="new 0 0 128 128" id="Слой_1" version="1.1" viewBox="0 0 128 128" xml:space="preserve" xmlns="http://www.w3.org/2000/svg" xmlns:xlink="http://www.w3.org/1999/xlink"><g><g><path d="M64,110.5c-25.641,0-46.5-20.86-46.5-46.5S38.359,17.5,64,17.5s46.5,20.86,46.5,46.5    S89.641,110.5,64,110.5z M64,20.5c-23.986,0-43.5,19.514-43.5,43.5s19.514,43.5,43.5,43.5s43.5-19.514,43.5-43.5    S87.986,20.5,64,20.5z" fill="#303031"/></g><g><path d="M76.893,52.187c0,6.772-5.773,19.34-12.893,19.34s-12.893-12.568-12.893-19.34S56.879,39.926,64,39.926    S76.893,45.415,76.893,52.187z" fill="#303031"/></g><g><path d="M74.864,70.629c-2.893,3.493-6.572,5.954-10.864,5.954s-7.971-2.462-10.864-5.954    C46.199,72.548,41.5,76.35,41.5,81.26c0,2.402,1.601,3.413,6.097,3.413H64h16.403c4.496,0,6.097-1.012,6.097-3.413    C86.5,76.35,81.801,72.548,74.864,70.629z" fill="#303031"/></g></g></svg>